<?xml version="1.0" encoding="UTF-8"?>
<!DOCTYPE svg PUBLIC "-//W3C//DTD SVG 1.1//EN" "http://www.w3.org/Graphics/SVG/1.1/DTD/svg11.dtd">
<!-- Creator: CorelDRAW 2018 (64-Bit) -->
<svg xmlns="http://www.w3.org/2000/svg" xml:space="preserve" width="1000mm" height="400mm" version="1.1" style="shape-rendering:geometricPrecision; text-rendering:geometricPrecision; image-rendering:optimizeQuality; fill-rule:evenodd; clip-rule:evenodd"
viewBox="0 0 10000 4000"
 xmlns:xlink="http://www.w3.org/1999/xlink">
 <defs>
  <style type="text/css">
   <![CDATA[
    .fil0 {fill:#D40F0F}
   ]]>
  </style>
 </defs>
 <g id="Слой_x0020_1">
  <metadata id="CorelCorpID_0Corel-Layer"/>
  <path class="fil0" d="M5700.13 3300.001l3691.17 0.009c188.252,0 343.078,-154.83 343.078,-343.083l0 -1887.594c0,-188.252 -154.826,-343.079 -343.078,-343.079l-3705.281 0 -4879.012 0 -0.161 0c-188.251,0 -343.081,154.827 -343.081,343.079l0 1887.577c0,188.252 154.83,343.079 343.081,343.079l4893.284 0.012zm56.444 198.591l3773.32 0.011c217.303,0 396.022,-178.724 396.022,-396.028l0 -2178.889c0,-217.304 -178.719,-396.024 -396.022,-396.024l-3787.431 0 -5088.319 0 0 0c-217.303,0 -396.026,178.72 -396.026,396.024l0 2178.869c0,217.304 178.723,396.024 396.026,396.024l5102.43 0.013z"/>
  <path class="fil0" d="M1743.59 2013.132c-206.23,-495.406 -412.709,-990.792 -412.709,-990.792l-412.964 0 0.977 1.926c0,15.602 -0.521,1977.481 0.723,1978.454 1.224,0.997 204.784,-49.069 411.264,-49.069l0 -965.655 412.483 965.655 412.959 -965.655 0 965.655c206.48,0 410.04,50.066 411.264,49.069 1.244,-0.973 0.723,-1960.564 0.723,-1976.166l0.036 -4.214 -412.043 0c-137.646,330.233 -275.217,660.497 -412.713,990.792z"/>
  <path class="fil0" d="M4833.768 2009.848c-206.23,-495.406 -412.709,-990.792 -412.709,-990.792l-412.964 0 0.977 1.926c0,15.602 -0.521,1977.481 0.723,1978.454 1.224,0.997 204.784,-49.069 411.264,-49.069l0 -965.655 412.483 965.655 412.959 -965.655 0 965.655c206.48,0 410.04,50.066 411.264,49.069 1.244,-0.973 0.723,-1960.564 0.723,-1976.166l0.036 -4.214 -412.043 0c-137.646,330.233 -275.217,660.497 -412.713,990.792z"/>
  <path class="fil0" d="M3907.795 2999.438l-618.916 -1500.718 -619.292 1504c1.05,0.888 154.823,-38.231 328.902,-47.653 18.688,-46.546 49.495,-123.135 90.882,-226.252l402.08 0c46.477,115.809 40.942,107.17 87.442,222.97 174.079,9.422 327.852,48.541 328.902,47.653zm-501.118 -475.064c-45.064,-112.303 -72.585,-180.916 -117.628,-293.23l-118.572 295.57 236.2 -2.34z"/>
  <path class="fil0" d="M8557.096 1812.282l394.402 0c53.334,0 96.971,52.142 96.971,115.872l0 743.31c0,63.73 -43.637,115.871 -96.971,115.871l-394.402 0c-53.335,0 -96.972,-52.141 -96.972,-115.871l0 -743.31c0,-63.73 43.637,-115.872 96.972,-115.872zm-2359.511 0l394.402 0c53.335,0 96.971,52.142 96.971,115.872l0 743.31c0,63.73 -43.636,115.871 -96.971,115.871l-394.402 0c-53.334,0 -96.971,-52.141 -96.971,-115.871l0 -743.31c0,-63.73 43.637,-115.872 96.971,-115.872zm1981.278 0l0 1022.257c0,107.886 85.362,196.156 189.687,196.156l771.493 0c104.327,0 189.688,-88.272 189.688,-196.156l0 -1069.459c0,-107.883 -85.36,-196.167 -189.688,-196.156l-771.493 0.084c-104.328,0 -189.687,109.473 -189.687,243.274zm-2314.261 -456.056l1320.671 0 60.679 450.951 164.636 1223.518 597.676 0 -164.635 -1223.519 -60.68 -450.951 1495.005 0 -44.163 -328.206 -3413.352 0.001 44.163 328.206zm1105.618 456.056l0 1022.257c0,107.884 -85.361,196.156 -189.687,196.156l-771.493 0c-104.329,0 -189.688,-88.27 -189.688,-196.156l0 -1069.459c0,-107.886 85.359,-196.156 189.688,-196.156l771.493 0c104.328,0 189.687,109.315 189.687,243.358z"/>
 </g>
</svg>
