<?xml version="1.0" encoding="UTF-8"?>
<!DOCTYPE svg PUBLIC "-//W3C//DTD SVG 1.1//EN" "http://www.w3.org/Graphics/SVG/1.1/DTD/svg11.dtd">
<!-- Creator: CorelDRAW 2018 (64-Bit) -->
<svg xmlns="http://www.w3.org/2000/svg" xml:space="preserve" width="16mm" height="16mm" version="1.1" style="shape-rendering:geometricPrecision; text-rendering:geometricPrecision; image-rendering:optimizeQuality; fill-rule:evenodd; clip-rule:evenodd"
viewBox="0 0 160 160"
 xmlns:xlink="http://www.w3.org/1999/xlink">
 <defs>
  <style type="text/css">
   <![CDATA[
    .fil1 {fill:black}
    .fil0 {fill:#1CC970}
   ]]>
  </style>
 </defs>
 <g id="Слой_x0020_1">
  <metadata id="CorelCorpID_0Corel-Layer"/>
  <g id="_2280262451152">
   <path class="fil0" d="M159.668 80.092c0,-43.797 -35.517,-79.314 -79.313,-79.314 -43.797,0 -79.314,35.517 -79.314,79.314 0,43.796 35.517,79.313 79.314,79.313 43.796,0 79.313,-35.517 79.313,-79.313z"/>
   <path class="fil1" d="M129.241 54.739c-1.854,-4.827 -5.658,-4.059 -9.782,-3.228 -2.462,0.511 -13.427,3.708 -30.721,21.994 -7.193,7.576 -11.924,13.619 -15.057,18.222 -1.918,-2.333 -4.092,-4.859 -6.394,-7.128 -7.066,-7.066 -14.962,-11.925 -15.282,-12.117 -3.293,-2.014 -7.608,-0.99 -9.654,2.334 -2.015,3.293 -0.991,7.608 2.301,9.654 0.064,0.032 6.842,4.22 12.66,10.07 5.946,5.947 11.349,14.002 11.412,14.098 1.311,1.983 3.517,3.133 5.85,3.133 0.384,0 0.8,-0.032 1.215,-0.096 2.749,-0.479 4.923,-2.526 5.595,-5.211 0.032,-0.064 2.813,-7.768 17.487,-23.241 11.828,-12.5 19.724,-16.464 22.473,-17.55 0.032,0 0.032,0 0.096,0 0,0 0.096,-0.032 0.256,-0.128 0.479,-0.191 0.736,-0.256 0.736,-0.256 -0.128,0.032 -0.192,0.032 -0.192,0.032l0 -0.032c1.279,-0.543 3.644,-1.567 3.676,-1.599 3.549,-1.534 4.732,-5.369 3.325,-8.951z"/>
  </g>
 </g>
</svg>
